<mxfile host="Electron" modified="2023-10-06T15:22:39.195Z" agent="Mozilla/5.0 (Windows NT 10.0; Win64; x64) AppleWebKit/537.36 (KHTML, like Gecko) draw.io/22.0.2 Chrome/114.0.5735.289 Electron/25.8.4 Safari/537.36" etag="bFdiPyiaMcXC7kE9NEOE" version="22.0.2" type="device">
  <diagram name="Page-1" id="AzwJGs6xZ2qGH026OkKW">
    <mxGraphModel dx="819" dy="551" grid="1" gridSize="10" guides="1" tooltips="1" connect="1" arrows="1" fold="1" page="1" pageScale="1" pageWidth="827" pageHeight="1169" math="0" shadow="0">
      <root>
        <mxCell id="0" />
        <mxCell id="1" parent="0" />
        <mxCell id="5BrET9XCrMvolj7ojVA5-2" value="&lt;font style=&quot;font-size: 14px;&quot;&gt;Power Receiving Unit&lt;/font&gt;" style="text;html=1;strokeColor=#666666;fillColor=#f5f5f5;align=center;verticalAlign=middle;whiteSpace=wrap;rounded=0;labelBackgroundColor=none;strokeWidth=1;fontSize=14;fontColor=#333333;" parent="1" vertex="1">
          <mxGeometry x="254" y="20" width="320" height="30" as="geometry" />
        </mxCell>
        <mxCell id="5BrET9XCrMvolj7ojVA5-21" value="" style="rounded=0;whiteSpace=wrap;html=1;labelBackgroundColor=none;strokeWidth=1;fontSize=12;fillColor=#f5f5f5;strokeColor=#666666;fontColor=#333333;" parent="1" vertex="1">
          <mxGeometry x="40" y="107" width="300" height="290" as="geometry" />
        </mxCell>
        <mxCell id="5BrET9XCrMvolj7ojVA5-22" value="Connector LC tank" style="rounded=0;whiteSpace=wrap;html=1;labelBackgroundColor=none;strokeWidth=1;fontSize=12;fillColor=#f5f5f5;strokeColor=#666666;fontColor=#333333;" parent="1" vertex="1">
          <mxGeometry x="80" y="118" width="120" height="20" as="geometry" />
        </mxCell>
        <mxCell id="5BrET9XCrMvolj7ojVA5-30" value="Rectifier" style="rounded=0;whiteSpace=wrap;html=1;labelBackgroundColor=none;strokeWidth=1;fontSize=12;fillColor=#f5f5f5;strokeColor=#666666;fontColor=#333333;" parent="1" vertex="1">
          <mxGeometry x="80" y="147" width="120" height="20" as="geometry" />
        </mxCell>
        <mxCell id="5BrET9XCrMvolj7ojVA5-31" value="NRF52832 BLE SoC" style="rounded=0;whiteSpace=wrap;html=1;labelBackgroundColor=none;strokeWidth=1;fontSize=12;fillColor=#f5f5f5;strokeColor=#666666;fontColor=#333333;" parent="1" vertex="1">
          <mxGeometry x="60" y="232" width="190" height="48" as="geometry" />
        </mxCell>
        <mxCell id="5BrET9XCrMvolj7ojVA5-33" value="MIFA&lt;br&gt;2.4 GHz&lt;br style=&quot;font-size: 12px;&quot;&gt;Antenna" style="rounded=0;whiteSpace=wrap;html=1;labelBackgroundColor=none;strokeWidth=1;fontSize=12;fillColor=#f5f5f5;strokeColor=#666666;fontColor=#333333;" parent="1" vertex="1">
          <mxGeometry x="270" y="232" width="60" height="48" as="geometry" />
        </mxCell>
        <mxCell id="5BrET9XCrMvolj7ojVA5-37" value="&lt;font color=&quot;#000000&quot;&gt;Tasks&lt;br style=&quot;font-size: 14px;&quot;&gt;-&lt;br style=&quot;font-size: 14px;&quot;&gt;&lt;br style=&quot;font-size: 14px;&quot;&gt;&amp;nbsp;Building blocks:&lt;br style=&quot;font-size: 14px;&quot;&gt;- L&lt;br&gt;&lt;br style=&quot;font-size: 14px;&quot;&gt;Input/output&lt;br style=&quot;font-size: 14px;&quot;&gt;-&amp;nbsp;&lt;/font&gt;" style="text;html=1;align=left;verticalAlign=middle;whiteSpace=wrap;rounded=0;labelBackgroundColor=none;strokeWidth=1;fontSize=14;fontColor=#FFFFFF;fontStyle=1" parent="1" vertex="1">
          <mxGeometry x="360" y="64.5" width="458" height="375" as="geometry" />
        </mxCell>
        <mxCell id="cNl4g3krqPywrEXPi0ky-1" value="CC/CV charger" style="rounded=0;whiteSpace=wrap;html=1;labelBackgroundColor=none;strokeWidth=1;fontSize=12;fillColor=#f5f5f5;strokeColor=#666666;fontColor=#333333;" vertex="1" parent="1">
          <mxGeometry x="80" y="180" width="120" height="40" as="geometry" />
        </mxCell>
        <mxCell id="cNl4g3krqPywrEXPi0ky-2" value="Energy&lt;br&gt;storage" style="rounded=0;whiteSpace=wrap;html=1;labelBackgroundColor=none;strokeWidth=1;fontSize=12;fillColor=#f5f5f5;strokeColor=#666666;fontColor=#333333;" vertex="1" parent="1">
          <mxGeometry x="230" y="120" width="100" height="100" as="geometry" />
        </mxCell>
        <mxCell id="cNl4g3krqPywrEXPi0ky-3" value="Load switch" style="rounded=0;whiteSpace=wrap;html=1;labelBackgroundColor=none;strokeWidth=1;fontSize=12;fillColor=#f5f5f5;strokeColor=#666666;fontColor=#333333;" vertex="1" parent="1">
          <mxGeometry x="60" y="310" width="110" height="20" as="geometry" />
        </mxCell>
        <mxCell id="cNl4g3krqPywrEXPi0ky-4" value="Connector&lt;br&gt;Sensor" style="rounded=0;whiteSpace=wrap;html=1;labelBackgroundColor=none;strokeWidth=1;fontSize=12;fillColor=#f5f5f5;strokeColor=#666666;fontColor=#333333;" vertex="1" parent="1">
          <mxGeometry x="210" y="340" width="110" height="40" as="geometry" />
        </mxCell>
        <mxCell id="cNl4g3krqPywrEXPi0ky-5" value="Load switch" style="rounded=0;whiteSpace=wrap;html=1;labelBackgroundColor=none;strokeWidth=1;fontSize=12;fillColor=#f5f5f5;strokeColor=#666666;fontColor=#333333;" vertex="1" parent="1">
          <mxGeometry x="210" y="310" width="110" height="20" as="geometry" />
        </mxCell>
        <mxCell id="cNl4g3krqPywrEXPi0ky-6" value="Connector&lt;br&gt;LPWAN transceiver" style="rounded=0;whiteSpace=wrap;html=1;labelBackgroundColor=none;strokeWidth=1;fontSize=12;fillColor=#f5f5f5;strokeColor=#666666;fontColor=#333333;" vertex="1" parent="1">
          <mxGeometry x="60" y="340" width="110" height="40" as="geometry" />
        </mxCell>
      </root>
    </mxGraphModel>
  </diagram>
</mxfile>
